<svg width="13" height="14" viewBox="0 0 13 14" fill="none" xmlns="http://www.w3.org/2000/svg">
<path fill-rule="evenodd" clip-rule="evenodd" d="M8.10851 1.44607L8.2526 1.22797L8.39663 1.01304L8.71763 0.529836C8.75759 0.470465 8.74118 0.390142 8.68167 0.351091C8.6229 0.311093 8.54225 0.327596 8.50389 0.387287L8.01379 1.12225L7.86656 1.34353C7.40074 1.16225 6.88161 1.06097 6.33354 1.06097C5.78626 1.06097 5.26634 1.16225 4.80051 1.34353L4.65408 1.12225L4.16474 0.387287C4.12481 0.327596 4.04494 0.311726 3.98544 0.351091C3.92671 0.390142 3.91027 0.470465 3.94942 0.529836L4.27043 1.01304L4.4145 1.22797L4.55934 1.44607C3.46555 1.9569 2.72565 2.92394 2.72565 4.03098H9.94146C9.94146 2.92394 9.20153 1.9569 8.10851 1.44607ZM7.8799 2.99791C7.66617 2.99791 7.49313 2.82456 7.49313 2.61027C7.49313 2.39629 7.66617 2.22358 7.8799 2.22358C8.09364 2.22358 8.26668 2.39629 8.26668 2.61027C8.26668 2.82456 8.09364 2.99791 7.8799 2.99791ZM4.40041 2.61027C4.40041 2.82456 4.57345 2.99791 4.78717 2.99791C5.00097 2.99791 5.17395 2.82456 5.17395 2.61027C5.17395 2.39629 5.00097 2.22358 4.78717 2.22358C4.57345 2.22358 4.40041 2.39629 4.40041 2.61027ZM9.94146 4.54689H2.72565V10.2278C2.72565 10.679 3.09129 11.046 3.54228 11.046H4.13107C4.1107 11.1142 4.09974 11.1857 4.09974 11.2609V12.8965C4.09974 13.3242 4.44659 13.6709 4.87329 13.6709C5.30003 13.6709 5.64684 13.3242 5.64684 12.8965V11.2609C5.64684 11.1857 5.63517 11.1142 5.61556 11.046H7.05152C7.03191 11.1142 7.02097 11.1857 7.02097 11.2609V12.8965C7.02097 13.3242 7.36705 13.6709 7.79378 13.6709C8.22125 13.6709 8.56813 13.3242 8.56813 12.8965V11.2609C8.56813 11.1857 8.55639 11.1142 8.53598 11.046H9.12555C9.57656 11.046 9.94146 10.679 9.94146 10.2278V4.54689ZM1.4369 4.54689C1.0094 4.54689 0.66333 4.89357 0.66333 5.32122V8.63535C0.66333 9.06301 1.0094 9.4097 1.4369 9.4097C1.86361 9.4097 2.20968 9.06301 2.20968 8.63535V5.32122C2.20968 4.89357 1.86361 4.54689 1.4369 4.54689ZM11.231 4.54689C10.8035 4.54689 10.4574 4.89357 10.4574 5.32122V8.63535C10.4574 9.06301 10.8035 9.4097 11.231 9.4097C11.6577 9.4097 12.0037 9.06301 12.0037 8.63535V5.32122C12.0037 4.89357 11.6577 4.54689 11.231 4.54689Z" fill="white"/>
</svg>
