<svg width="13" height="14" viewBox="0 0 13 14" fill="none" xmlns="http://www.w3.org/2000/svg">
<path fill-rule="evenodd" clip-rule="evenodd" d="M8.82229 0.329224C8.94103 1.1396 8.61276 1.93349 8.17983 2.49518C7.71654 3.09767 6.91804 3.56366 6.14442 3.53934C6.0032 2.76348 6.36476 1.96409 6.80477 1.42672C7.2874 0.833645 8.11458 0.378648 8.82229 0.329224ZM11.1463 11.7355C11.5451 11.1212 11.6942 10.8114 12.0037 10.1179C9.75187 9.25727 9.39105 6.04012 11.6196 4.80533C10.9399 3.94868 9.98469 3.45209 9.08299 3.45209C8.43327 3.45209 7.98812 3.62248 7.58344 3.77737C7.24621 3.90645 6.93707 4.02477 6.56108 4.02477C6.15476 4.02477 5.79495 3.89513 5.41819 3.75938C5.00419 3.61021 4.56972 3.45366 4.0306 3.45366C3.01873 3.45366 1.94168 4.07498 1.25882 5.13717C0.298936 6.63316 0.462665 9.44559 2.01927 11.8413C2.57564 12.6988 3.31903 13.6622 4.29133 13.6708C4.69476 13.6748 4.96321 13.5538 5.25373 13.4229C5.58626 13.273 5.94768 13.1101 6.57349 13.1067C7.20293 13.1029 7.55865 13.2678 7.88677 13.4199C8.16984 13.5511 8.43236 13.6728 8.83237 13.6684C9.80544 13.6606 10.5899 12.5929 11.1463 11.7355Z" fill="white"/>
</svg>
