<svg width="40" height="40" viewBox="0 0 40 40" fill="none" xmlns="http://www.w3.org/2000/svg">
<path d="M20.8739 15.3L18.7765 13.2L22.4719 9.5H13.3833V6.5H22.4719L18.7765 2.8L20.8739 0.7L28.1648 8L20.8739 15.3ZM11.3858 40C10.387 40 9.53808 39.65 8.83895 38.95C8.13982 38.25 7.79026 37.4 7.79026 36.4C7.79026 35.4 8.13982 34.55 8.83895 33.85C9.53808 33.15 10.387 32.8 11.3858 32.8C12.3845 32.8 13.2335 33.15 13.9326 33.85C14.6317 34.55 14.9813 35.4 14.9813 36.4C14.9813 37.4 14.6317 38.25 13.9326 38.95C13.2335 39.65 12.3845 40 11.3858 40ZM31.5605 40C30.5618 40 29.7129 39.65 29.0137 38.95C28.3146 38.25 27.965 37.4 27.965 36.4C27.965 35.4 28.3146 34.55 29.0137 33.85C29.7129 33.15 30.5618 32.8 31.5605 32.8C32.5593 32.8 33.4082 33.15 34.1074 33.85C34.8065 34.55 35.1561 35.4 35.1561 36.4C35.1561 37.4 34.8065 38.25 34.1074 38.95C33.4082 39.65 32.5593 40 31.5605 40ZM0 3V0H5.79276L14.2821 18.2H28.6642L36.6542 4.2H40L31.9101 19.35C31.5439 19.9833 31.0695 20.4917 30.4869 20.875C29.9043 21.2583 29.2634 21.45 28.5643 21.45H13.4332L10.6367 26.65H35.1561V29.65H11.0861C9.82106 29.65 8.86392 29.15 8.21473 28.15C7.56554 27.15 7.52393 26.1333 8.08989 25.1L11.2859 19.2L3.89513 3H0Z" fill="#4BC1C2"/>
</svg>
