<svg width="119" height="30" viewBox="0 0 119 30" fill="none" xmlns="http://www.w3.org/2000/svg">
<g clip-path="url(#clip0_423_56)">
<path d="M2.17542 0H0V23.125H2.17542V0Z" fill="#231F20"/>
<path d="M14.6493 6.13425C12.9368 6.13425 11.1548 6.64351 9.3265 7.63888V6.45832H7.24365V23.125H9.3265V9.39814L9.99764 9.09721C10.4605 8.86573 11.1085 8.6111 11.9416 8.37962C12.7748 8.14814 13.5848 8.0324 14.3485 8.0324C15.899 8.0324 16.9173 8.47221 17.4033 9.32869C17.8893 10.2083 18.1207 11.9213 18.1207 14.4444V23.1018H20.2267V14.3287C20.2267 11.2268 19.8564 9.05091 19.1159 7.87036C18.3753 6.6898 16.871 6.08795 14.6493 6.08795" fill="#231F20"/>
<path d="M34.9224 15.0231C34.0892 14.4213 32.6544 13.9352 30.6178 13.6111C28.6044 13.2639 27.3084 12.9167 26.753 12.5694C26.1976 12.2222 25.9199 11.6435 25.9199 10.8102C25.9199 8.95832 27.1696 8.05554 29.7615 8.05554C31.1964 8.05554 33.1172 8.24073 35.4778 8.58795H35.5472L35.6167 6.71295L34.6678 6.57406C32.6775 6.29628 31.0113 6.13425 29.6921 6.13425C28.0258 6.13425 26.6141 6.50462 25.4801 7.24536C24.3461 7.9861 23.7676 9.16665 23.7676 10.787C23.7676 12.4074 24.1841 13.4954 25.0173 14.0741C25.8273 14.6528 27.2621 15.0926 29.2524 15.4167C31.2195 15.7176 32.5387 16.0648 33.1404 16.412C33.719 16.7592 34.0198 17.4768 34.0198 18.5417C34.0198 19.6065 33.6495 20.3935 32.9321 20.8333C32.2147 21.2963 31.1733 21.5278 29.8773 21.5278C28.5813 21.5278 26.6373 21.3426 24.2073 20.9722H24.1379L23.999 22.8472L25.0173 22.9861C26.9381 23.3102 28.5118 23.4491 29.7153 23.4491C31.8213 23.4491 33.4412 23.0555 34.529 22.2685C35.6167 21.4815 36.1721 20.2083 36.1721 18.4954C36.1721 16.7824 35.7555 15.625 34.8992 15.0231" fill="#231F20"/>
<path d="M45.9847 21.5741C44.8738 21.5741 44.1564 21.25 43.8555 20.625C43.5547 19.9769 43.3927 18.5648 43.3927 16.4583V8.33333H48.9238V6.45833H43.3927V1.25H41.2867V6.45833H38.8336V8.33333H41.2867V17.4306C41.2867 19.7685 41.6107 21.3889 42.2818 22.2222C42.953 23.0556 44.1332 23.4954 45.8227 23.4954C46.5864 23.4954 47.7204 23.3796 49.1784 23.1713H49.2478L49.1089 21.3426L46.0078 21.5741H45.9847Z" fill="#231F20"/>
<path d="M65.8874 21.713C64.5914 21.5509 63.874 21.0879 63.7814 20.3241V11.4583C63.7814 9.65276 63.3649 8.31017 62.5317 7.43054C61.6986 6.55091 60.3563 6.13425 58.528 6.13425C56.6997 6.13425 54.5706 6.36573 52.1638 6.82869H52.0943L52.2101 8.5648L53.2978 8.44906C55.5426 8.19443 57.394 8.05554 58.7826 8.05554C59.662 8.05554 60.3794 8.33332 60.8886 8.84258C61.4209 9.37499 61.6754 10.2546 61.6754 11.4583V12.9398L56.1212 13.4954C54.4318 13.6805 53.182 14.1667 52.3952 14.9305C51.6083 15.6944 51.1918 16.8981 51.1918 18.4954C51.1918 20.0926 51.5852 21.3194 52.372 22.1759C53.1589 23.0324 54.2929 23.4722 55.7972 23.4722C57.8569 23.4722 59.9397 23.0092 61.9994 22.1296C62.8094 23.0092 64.0823 23.4491 65.7486 23.4491H65.818L65.9337 21.7361H65.8874V21.713ZM61.6986 14.6296V20.5092L60.9117 20.787C60.3563 20.9722 59.6157 21.1805 58.6669 21.3657C57.7412 21.5509 56.8617 21.6435 56.0749 21.6435C54.2698 21.6435 53.3903 20.5787 53.3903 18.3796C53.3903 17.3842 53.6218 16.6204 54.0846 16.1111C54.5475 15.6018 55.3112 15.3009 56.3757 15.2083L61.6986 14.6528V14.6296Z" fill="#231F20"/>
<path d="M78.0142 16.5046H74.3114V23.0555H69.7523V0.555542H78.0142C83.3602 0.555542 86.0216 3.17128 86.0216 8.37962C86.0216 10.9954 85.3505 13.0092 83.9851 14.4213C82.6196 15.8102 80.6293 16.5278 78.0142 16.5278V16.5046ZM74.3114 12.6157H77.9679C80.2359 12.6157 81.3699 11.2037 81.3699 8.37962C81.3699 6.96758 81.0922 5.97221 80.5368 5.37036C79.9814 4.7685 79.1251 4.46758 77.9448 4.46758H74.2882V12.6157H74.3114Z" fill="#231F20"/>
<path d="M101.18 11.6667V18.5417C101.226 19.0741 101.319 19.4444 101.435 19.6528C101.574 19.8611 101.851 20.0232 102.268 20.0926L102.129 23.4259C100.995 23.4259 100.116 23.3565 99.4213 23.1944C98.7501 23.0324 98.079 22.7315 97.3847 22.2685C95.7878 23.0324 94.1679 23.4259 92.5247 23.4259C89.0996 23.4259 87.387 21.6204 87.387 17.9861C87.387 16.2269 87.873 14.9769 88.7987 14.2361C89.7476 13.4954 91.2056 13.0556 93.1727 12.9398L96.7136 12.662V11.6435C96.7136 10.9722 96.5516 10.4861 96.2507 10.2315C95.9267 9.97686 95.4407 9.86111 94.7696 9.86111L88.5442 10.1389L88.4053 7.06019C90.7659 6.41204 93.0107 6.11111 95.1398 6.11111C97.269 6.11111 98.7964 6.55093 99.7453 7.43056C100.671 8.31019 101.157 9.72223 101.157 11.6667H101.18ZM93.7281 16.0417C92.5016 16.1574 91.8767 16.8056 91.8767 18.0324C91.8767 19.2593 92.409 19.8611 93.4967 19.8611C94.3299 19.8611 95.2556 19.7222 96.2507 19.4676L96.7367 19.3519V15.8102L93.7281 16.0648V16.0417Z" fill="#231F20"/>
<path d="M103.494 6.52777H107.868L110.877 19.2824H111.641L114.649 6.52777H119L113.191 30H108.864L110.669 23.0555H107.568L103.494 6.52777Z" fill="#231F20"/>
</g>
<defs>
<clipPath id="clip0_423_56">
<rect width="119" height="30" fill="white"/>
</clipPath>
</defs>
</svg>
