<svg width="34" height="40" viewBox="0 0 34 40" fill="none" xmlns="http://www.w3.org/2000/svg">
<path d="M3.36363 40C2.63635 40 1.99999 39.7273 1.45453 39.1818C0.909079 38.6364 0.636353 38 0.636353 37.2727V2.72727C0.636353 2 0.909079 1.36364 1.45453 0.818182C1.99999 0.272727 2.63635 0 3.36363 0H17.9091V2.72727H3.36363V4.09091H17.9091V6.81818H3.36363V33.1818H23.3636V27.2727H26.0909V37.2727C26.0909 38 25.8182 38.6364 25.2727 39.1818C24.7273 39.7273 24.0909 40 23.3636 40H3.36363ZM3.36363 35.9091V37.2727H23.3636V35.9091H3.36363ZM24.9091 23L16.4545 14.5455L18.3636 12.6364L23.5454 17.7727V4.09091H26.2727V17.7727L31.4545 12.6364L33.3636 14.5455L24.9091 23ZM3.36363 4.09091V2.72727V4.09091ZM3.36363 35.9091V37.2727V35.9091Z" fill="#4BC1C2"/>
</svg>
