<svg width="40" height="40" viewBox="0 0 40 40" fill="none" xmlns="http://www.w3.org/2000/svg">
<path d="M0 8.65V0H8.65V3H3V8.65H0ZM0 40V31.35H3V37H8.65V40H0ZM31.35 40V37H37V31.35H40V40H31.35ZM37 8.65V3H31.35V0H40V8.65H37ZM31.4 31.45H34.55V34.6H31.4V31.45ZM31.4 25.15H34.55V28.3H31.4V25.15ZM28.25 28.3H31.4V31.45H28.25V28.3ZM25.1 31.45H28.25V34.6H25.1V31.45ZM21.95 28.3H25.1V31.45H21.95V28.3ZM28.25 22H31.4V25.15H28.25V22ZM25.1 25.15H28.25V28.3H25.1V25.15ZM21.95 22H25.1V25.15H21.95V22ZM34.55 5.4V18H21.95V5.4H34.55ZM18 22V34.6H5.4V22H18ZM18 5.4V18H5.4V5.4H18ZM15.5 32.1V24.5H7.9V32.1H15.5ZM15.5 15.5V7.9H7.9V15.5H15.5ZM32.05 15.5V7.9H24.45V15.5H32.05Z" fill="#4BC1C2"/>
</svg>
