<svg width="50" height="50" viewBox="0 0 50 50" fill="none" xmlns="http://www.w3.org/2000/svg">
<g clip-path="url(#clip0_719_193)">
<path d="M25 50C38.8071 50 50 38.8071 50 25C50 11.1929 38.8071 0 25 0C11.1929 0 0 11.1929 0 25C0 38.8071 11.1929 50 25 50Z" fill="#F7931A"/>
<path d="M36.2328 21.9063C36.7234 18.6313 34.2281 16.8703 30.8188 15.6953L31.925 11.2578L29.225 10.5859L28.1469 14.9062C27.4375 14.7281 26.7094 14.5625 25.9828 14.3969L27.0688 10.0484L24.3688 9.375L23.2625 13.8109C22.675 13.6766 22.0969 13.5453 21.5375 13.4047L21.5406 13.3906L17.8156 12.4609L17.0969 15.3453C17.0969 15.3453 19.1016 15.8047 19.0594 15.8328C20.1531 16.1063 20.35 16.8297 20.3172 17.4047L19.0578 22.4594C19.1328 22.4781 19.2297 22.5062 19.3391 22.5484L19.0531 22.4781L17.2875 29.5594C17.1531 29.8906 16.8141 30.3891 16.0484 30.2C16.0766 30.2391 14.0859 29.7109 14.0859 29.7109L12.7453 32.8016L16.2609 33.6781C16.9141 33.8422 17.5547 34.0141 18.1844 34.175L17.0672 38.6625L19.7656 39.3344L20.8719 34.8969C21.6094 35.0953 22.325 35.2797 23.025 35.4547L21.9219 39.8734L24.6219 40.5453L25.7391 36.0672C30.3453 36.9391 33.8078 36.5875 35.2656 32.4219C36.4406 29.0688 35.2078 27.1328 32.7844 25.8719C34.55 25.4656 35.8781 24.3047 36.2328 21.9063ZM30.0609 30.5594C29.2281 33.9141 23.5797 32.1 21.7484 31.6453L23.2328 25.7C25.0641 26.1578 30.9344 27.0625 30.0609 30.5594ZM30.8969 21.8578C30.1359 24.9094 25.4359 23.3578 23.9125 22.9781L25.2563 17.5875C26.7797 17.9672 31.6906 18.675 30.8969 21.8578Z" fill="white"/>
</g>
<defs>
<clipPath id="clip0_719_193">
<rect width="50" height="50" fill="white"/>
</clipPath>
</defs>
</svg>
